# xmcd CD database file
#
# Track frame offsets:
#	150
#	22142
#	45922
#
# Disc length: 904 seconds
#
# Revision: 0
# Processed by: cddbd v1.5.1PL0 Copyright (c) Steve Scherf et al.
# Submitted via: CDex 1.51
#
DISCID=1b038603
DTITLE=KATSUMI - 君のもとへ
DYEAR=1993
DGENRE=JPop
TTITLE0=君のもとへ
TTITLE1=EVERY TIME YOU WALK
TTITLE2=君のもとへ(カラオケ)
EXTD=YEAR: 1993
EXTT0=
EXTT1=
EXTT2=
PLAYORDER=
